<svg xmlns="http://www.w3.org/2000/svg" viewBox="0 0 344.4115547206454 60">
    <defs>
        <linearGradient gradientTransform="rotate(25)" id="9d059230-13e4-4031-b12c-1aa287ffc4a5" x1="0%" y1="0%" x2="100%" y2="0%">
            <stop offset="0%" style="stop-color: rgb(66, 15, 20); stop-opacity: 1;">
            </stop>
            <stop offset="100%" style="stop-color: rgb(197, 84, 94); stop-opacity: 1;">
            </stop>
        </linearGradient>
    </defs>
    <g id="16dd45ba-0c4d-4caf-b764-78ffa9cf2b38" fill="url(#9d059230-13e4-4031-b12c-1aa287ffc4a5)" transform="matrix(4.441154624981523,0,0,4.441154624981523,-0.6217659996172813,-21.00666193770806)">
        <path d="M3.19 4.73L0.14 15.40L2.93 15.40L3.44 13.12L6.13 13.12L6.65 15.40L9.59 15.40L6.54 4.73ZM4.79 7.21L5.57 10.70L3.99 10.70ZM14.70 15.12C14.70 15.99 14.38 16.23 13.90 16.23C13.26 16.23 13.03 15.97 12.99 15.33L10.40 15.33C10.40 17.05 11.21 18.24 13.82 18.24C15.97 18.24 17.42 17.29 17.42 14.90L17.42 6.85L14.85 6.85L14.74 7.34C14.39 6.97 13.86 6.68 12.95 6.68C11.56 6.68 10.23 7.80 10.23 9.98L10.23 11.42C10.23 13.69 11.35 14.87 13.23 14.87C13.89 14.87 14.35 14.71 14.70 14.41ZM14.70 11.47C14.70 12.25 14.45 12.49 13.83 12.49C13.22 12.49 12.96 12.25 12.96 11.47L12.96 10.08C12.96 9.34 13.26 9.06 13.83 9.06C14.38 9.06 14.70 9.32 14.70 10.07ZM23.14 15.12C23.14 15.99 22.82 16.23 22.34 16.23C21.70 16.23 21.48 15.97 21.43 15.33L18.84 15.33C18.84 17.05 19.66 18.24 22.26 18.24C24.42 18.24 25.86 17.29 25.86 14.90L25.86 6.85L23.30 6.85L23.18 7.34C22.83 6.97 22.30 6.68 21.39 6.68C20.01 6.68 18.68 7.80 18.68 9.98L18.68 11.42C18.68 13.69 19.80 14.87 21.67 14.87C22.33 14.87 22.79 14.71 23.14 14.41ZM23.14 11.47C23.14 12.25 22.89 12.49 22.27 12.49C21.66 12.49 21.41 12.25 21.41 11.47L21.41 10.08C21.41 9.34 21.70 9.06 22.27 9.06C22.82 9.06 23.14 9.32 23.14 10.07ZM27.26 6.85L27.26 15.40L29.97 15.40L29.97 11.17C29.97 9.83 30.70 9.49 31.44 9.49C31.67 9.49 31.89 9.52 32.10 9.56L32.10 6.75C31.98 6.73 31.85 6.72 31.72 6.72C30.94 6.72 30.18 7.08 29.79 7.66L29.61 6.85ZM37.48 12.60C37.41 13.15 37.21 13.52 36.47 13.52C35.85 13.52 35.55 13.12 35.55 12.42L35.55 11.82L40.04 11.82L40.04 10.02C40.04 7.71 38.84 6.68 36.48 6.68C34.05 6.68 32.87 8.02 32.87 9.98L32.87 12.08C32.87 14.49 34.05 15.57 36.48 15.57C38.98 15.57 39.89 14.50 39.97 12.60ZM36.51 8.68C37.13 8.68 37.48 8.97 37.48 9.74L37.48 10.11L35.55 10.11L35.55 9.79C35.55 8.99 35.85 8.68 36.51 8.68ZM41.30 4.73L41.30 15.40L43.93 15.40L43.93 9.58L46.65 15.40L49.45 15.40L49.45 4.73L46.84 4.73L46.84 10.82L44.13 4.73ZM55.38 12.60C55.31 13.15 55.12 13.52 54.38 13.52C53.76 13.52 53.45 13.12 53.45 12.42L53.45 11.82L57.95 11.82L57.95 10.02C57.95 7.71 56.74 6.68 54.39 6.68C51.95 6.68 50.78 8.02 50.78 9.98L50.78 12.08C50.78 14.49 51.95 15.57 54.39 15.57C56.88 15.57 57.79 14.50 57.88 12.60ZM54.42 8.68C55.03 8.68 55.38 8.97 55.38 9.74L55.38 10.11L53.45 10.11L53.45 9.79C53.45 8.99 53.76 8.68 54.42 8.68ZM63.18 6.85L62.15 12.56L61.52 6.85L58.63 6.85L60.52 15.40L63.45 15.40L64.36 10.51L65.27 15.40L68.21 15.40L70.10 6.85L67.37 6.85L66.74 12.56L65.76 6.85ZM74.61 10.02C73.54 9.88 73.44 9.62 73.44 9.28C73.44 8.90 73.71 8.67 74.19 8.67C74.80 8.67 75.07 9.03 75.07 9.59L77.56 9.59C77.56 7.71 76.50 6.68 74.27 6.68C72.30 6.68 70.85 7.56 70.85 9.39C70.85 11.20 71.92 11.89 73.99 12.12C74.97 12.24 75.03 12.52 75.03 12.92C75.03 13.31 74.75 13.58 74.27 13.58C73.63 13.58 73.30 13.30 73.26 12.66L70.67 12.66C70.67 14.38 71.74 15.57 74.09 15.57C76.24 15.57 77.69 14.63 77.69 12.74C77.69 10.88 76.24 10.23 74.61 10.02Z">
        </path>
    </g>
</svg>
